<svg width="14" height="13" viewBox="0 0 14 13" fill="none" xmlns="http://www.w3.org/2000/svg">
<path d="M13.652 6.8582C13.6771 8.39401 13.0494 9.93779 11.7693 11.1096C10.4897 12.2818 8.80432 12.8562 7.1267 12.8336C7.10156 11.2978 7.72927 9.754 9.00937 8.58222C10.2895 7.41 11.9748 6.83562 13.652 6.8582Z" fill="#354453"/>
<path d="M7.12668 0.881373C8.80381 0.858345 10.4896 1.43316 11.7693 2.60539C13.0494 3.77762 13.6766 5.32095 13.6519 6.85676C11.9748 6.87978 10.289 6.30496 9.00934 5.13274C7.72924 3.96051 7.10201 2.41718 7.12668 0.881373Z" fill="#354453"/>
<path d="M0.600001 6.85688C0.574854 5.32108 1.20257 3.7773 2.48267 2.60552C3.76228 1.43329 5.44763 0.858915 7.12525 0.8815C7.1504 2.41731 6.52268 3.96108 5.24259 5.13287C3.96249 6.30509 2.27713 6.87947 0.600001 6.85688Z" fill="#354453"/>
<path d="M7.12528 12.8335C5.44814 12.8565 3.7623 12.2817 2.48269 11.1095C1.2026 9.93723 0.575365 8.39389 0.600029 6.85809C2.27716 6.83506 3.963 7.40988 5.24261 8.5821C6.52271 9.75433 7.14994 11.2977 7.12528 12.8335Z" fill="#354453"/>
</svg>
